<?xml version="1.0" encoding="UTF-8"?>
<svg xmlns="http://www.w3.org/2000/svg" xmlns:xlink="http://www.w3.org/1999/xlink" width="150pt" height="150pt" viewBox="0 0 150 150" version="1.1">
<g id="surface1">
<path style=" stroke:none;fill-rule:nonzero;fill:rgb(0%,0%,0%);fill-opacity:1;" d="M 99.582031 104.632812 L 99.582031 77.816406 C 99.582031 77.769531 99.578125 77.722656 99.570312 77.675781 C 99.570312 77.664062 99.570312 77.652344 99.566406 77.640625 C 99.558594 77.5625 99.539062 77.488281 99.515625 77.414062 C 99.511719 77.394531 99.503906 77.375 99.496094 77.355469 C 99.46875 77.28125 99.4375 77.207031 99.398438 77.136719 C 99.359375 77.066406 99.308594 77.003906 99.257812 76.941406 C 99.246094 76.925781 99.230469 76.910156 99.21875 76.894531 C 99.167969 76.835938 99.109375 76.785156 99.050781 76.738281 C 99.039062 76.730469 99.03125 76.726562 99.019531 76.71875 C 98.984375 76.691406 98.945312 76.664062 98.90625 76.640625 L 75.679688 63.230469 C 75.257812 62.988281 74.742188 62.988281 74.324219 63.230469 L 51.097656 76.640625 C 51.058594 76.664062 51.019531 76.691406 50.984375 76.714844 C 50.972656 76.722656 50.960938 76.730469 50.953125 76.738281 C 50.890625 76.785156 50.835938 76.835938 50.785156 76.894531 C 50.769531 76.910156 50.757812 76.921875 50.742188 76.941406 C 50.691406 77 50.644531 77.066406 50.601562 77.136719 C 50.5625 77.207031 50.53125 77.28125 50.503906 77.355469 C 50.496094 77.375 50.492188 77.394531 50.484375 77.414062 C 50.460938 77.488281 50.445312 77.5625 50.433594 77.640625 C 50.433594 77.652344 50.433594 77.664062 50.429688 77.675781 C 50.425781 77.722656 50.421875 77.769531 50.421875 77.816406 L 50.421875 104.632812 C 50.421875 105.117188 50.679688 105.566406 51.097656 105.808594 L 74.324219 119.21875 C 74.367188 119.242188 74.410156 119.261719 74.453125 119.28125 C 74.460938 119.285156 74.472656 119.292969 74.480469 119.296875 C 74.554688 119.324219 74.628906 119.347656 74.703125 119.363281 C 74.722656 119.367188 74.742188 119.371094 74.761719 119.375 C 74.839844 119.390625 74.921875 119.398438 75 119.398438 C 75.082031 119.398438 75.164062 119.390625 75.242188 119.375 C 75.261719 119.371094 75.28125 119.367188 75.300781 119.363281 C 75.375 119.347656 75.449219 119.324219 75.523438 119.296875 C 75.535156 119.292969 75.542969 119.285156 75.554688 119.28125 C 75.597656 119.261719 75.636719 119.242188 75.679688 119.21875 L 98.90625 105.808594 C 99.324219 105.566406 99.582031 105.121094 99.582031 104.632812 Z M 99.582031 104.632812 "/>
<path style=" stroke:none;fill-rule:nonzero;fill:rgb(0%,0%,0%);fill-opacity:1;" d="M 65.925781 122.503906 L 43.375 109.484375 L 43.375 83.445312 C 43.375 82.832031 42.964844 82.296875 42.371094 82.136719 C 41.777344 81.976562 41.152344 82.238281 40.847656 82.769531 L 17.621094 123 C 17.378906 123.417969 17.378906 123.933594 17.621094 124.351562 C 17.863281 124.773438 18.308594 125.03125 18.792969 125.03125 L 65.246094 125.03125 C 65.859375 125.03125 66.398438 124.617188 66.554688 124.027344 C 66.714844 123.433594 66.457031 122.808594 65.925781 122.503906 Z M 65.925781 122.503906 "/>
<path style=" stroke:none;fill-rule:nonzero;fill:rgb(0%,0%,0%);fill-opacity:1;" d="M 52.449219 67.726562 L 75 54.707031 L 97.550781 67.726562 C 97.761719 67.851562 97.996094 67.910156 98.226562 67.910156 C 98.578125 67.910156 98.921875 67.773438 99.183594 67.511719 C 99.617188 67.078125 99.707031 66.410156 99.398438 65.878906 L 76.171875 25.648438 C 75.933594 25.226562 75.484375 24.96875 75 24.96875 C 74.515625 24.96875 74.070312 25.226562 73.828125 25.648438 L 50.601562 65.875 C 50.292969 66.40625 50.382812 67.078125 50.816406 67.511719 C 51.25 67.945312 51.917969 68.035156 52.449219 67.726562 Z M 52.449219 67.726562 "/>
<path style=" stroke:none;fill-rule:nonzero;fill:rgb(0%,0%,0%);fill-opacity:1;" d="M 132.378906 123 L 109.152344 82.769531 C 108.847656 82.238281 108.222656 81.980469 107.628906 82.140625 C 107.039062 82.296875 106.625 82.835938 106.625 83.445312 L 106.625 109.484375 L 84.074219 122.503906 C 83.542969 122.8125 83.285156 123.4375 83.445312 124.027344 C 83.601562 124.621094 84.140625 125.03125 84.753906 125.03125 L 131.207031 125.03125 C 131.6875 125.03125 132.136719 124.773438 132.378906 124.355469 C 132.621094 123.933594 132.621094 123.417969 132.378906 123 Z M 132.378906 123 "/>
</g>
</svg>
